<svg xmlns="http://www.w3.org/2000/svg" viewBox="-15 -5 130 120" fill="none" overflow="visible">
  <defs>
    <linearGradient id="v3g" x1="0" y1="0" x2="1" y2="1">
      <stop offset="0%" stop-color="#FDE68A"/><stop offset="100%" stop-color="#F97316"/>
    </linearGradient>
  </defs>
  <!-- Card back left -->
  <rect x="20" y="22" width="52" height="68" rx="6" fill="#0F172A" stroke="#374151" stroke-width="1.5" transform="rotate(-12 46 56)"/>
  <!-- Card back right -->
  <rect x="20" y="22" width="52" height="68" rx="6" fill="#111827" stroke="#4B5563" stroke-width="1.5" transform="rotate(6 46 56)"/>
  <!-- Main card -->
  <rect x="22" y="18" width="56" height="72" rx="7" fill="#0d1117"/>
  <rect x="22" y="18" width="56" height="72" rx="7" fill="none" stroke="url(#v3g)" stroke-width="2.5"/>
  <!-- Orange gold top band -->
  <rect x="22" y="18" width="56" height="32" rx="7" fill="url(#v3g)"/>
  <rect x="22" y="36" width="56" height="14" fill="url(#v3g)"/>
  <!-- Pokeball split with gradient -->
  <circle cx="50" cy="55" r="12" fill="#0a0d14"/>
  <path d="M38 55 A12 12 0 0 1 62 55 Z" fill="url(#v3g)"/>
  <rect x="38" y="52" width="24" height="6" fill="#0a0d14"/>
  <circle cx="50" cy="55" r="12" fill="none" stroke="url(#v3g)" stroke-width="2.5"/>
  <circle cx="50" cy="55" r="4.5" fill="#0a0d14" stroke="url(#v3g)" stroke-width="2.5"/>
  <circle cx="50" cy="55" r="1.8" fill="#FDE68A"/>
</svg>