<svg xmlns="http://www.w3.org/2000/svg" viewBox="0 0 100 100" fill="none">
  <defs><clipPath id="yyc"><circle cx="50" cy="50" r="44"/></clipPath></defs>
  <circle cx="50" cy="50" r="46" fill="#0a0e18" stroke="#FBBF24" stroke-width="2.5"/>
  <path d="M50 6 A44 44 0 0 0 50 94 A22 22 0 0 1 50 50 A22 22 0 0 0 50 6 Z" fill="#0a0e18" clip-path="url(#yyc)"/>
  <path d="M50 6 A44 44 0 0 1 50 94 A22 22 0 0 0 50 50 A22 22 0 0 1 50 6 Z" fill="#FBBF24" clip-path="url(#yyc)"/>
  <circle cx="50" cy="28" r="10" fill="#FBBF24"/>
  <circle cx="50" cy="72" r="10" fill="#0a0e18"/>
  <circle cx="50" cy="28" r="4" fill="#0a0e18"/>
  <circle cx="50" cy="72" r="4" fill="#FBBF24"/>
  <circle cx="50" cy="50" r="44" fill="none" stroke="#FBBF24" stroke-width="2.5"/>
</svg>