<svg xmlns="http://www.w3.org/2000/svg" viewBox="0 0 100 100" fill="none">
  <rect x="4" y="4" width="92" height="92" rx="18" fill="#060d1a" stroke="#FBBF24" stroke-width="2"/>
  <g stroke="#FBBF24" stroke-width="1.5" opacity="0.3">
    <path d="M20 20 H36 V36"/><path d="M80 20 H64 V36"/>
    <path d="M20 80 H36 V64"/><path d="M80 80 H64 V64"/>
    <line x1="50" y1="4" x2="50" y2="20"/><line x1="50" y1="80" x2="50" y2="96"/>
    <line x1="4" y1="50" x2="20" y2="50"/><line x1="80" y1="50" x2="96" y2="50"/>
  </g>
  <g fill="#FBBF24" opacity="0.6">
    <rect x="16" y="16" width="7" height="7" rx="1.5"/>
    <rect x="77" y="16" width="7" height="7" rx="1.5"/>
    <rect x="16" y="77" width="7" height="7" rx="1.5"/>
    <rect x="77" y="77" width="7" height="7" rx="1.5"/>
  </g>
  <circle cx="50" cy="50" r="22" fill="#0d1420" stroke="#FBBF24" stroke-width="2"/>
  <path d="M28 50 A22 22 0 0 1 72 50 Z" fill="#FBBF24"/>
  <rect x="28" y="47" width="44" height="6" fill="#0d1420"/>
  <circle cx="50" cy="50" r="9" fill="#0d1420" stroke="#FBBF24" stroke-width="3.5"/>
  <circle cx="50" cy="50" r="3" fill="#FBBF24"/>
</svg>