<svg xmlns="http://www.w3.org/2000/svg" viewBox="-15 -5 130 120" fill="none" overflow="visible">
  <!-- Card back left - rotated -->
  <rect x="20" y="22" width="52" height="68" rx="6" fill="#0F172A" stroke="#374151" stroke-width="1.5" transform="rotate(-12 46 56)"/>
  <!-- Card back right - rotated -->
  <rect x="20" y="22" width="52" height="68" rx="6" fill="#111827" stroke="#4B5563" stroke-width="1.5" transform="rotate(6 46 56)"/>
  <!-- Main card front - straight -->
  <rect x="22" y="18" width="56" height="72" rx="7" fill="#1F2937" stroke="#FBBF24" stroke-width="2.5"/>
  <!-- Yellow top band -->
  <rect x="22" y="18" width="56" height="32" rx="7" fill="#FBBF24"/>
  <rect x="22" y="36" width="56" height="14" fill="#FBBF24"/>
  <!-- Star on yellow -->
  <polygon points="50,24 52,30 58,30 53,34 55,40 50,36 45,40 47,34 42,30 48,30" fill="#92400E" opacity="0.5"/>
  <!-- Pokeball on card -->
  <circle cx="50" cy="55" r="11" fill="#1F2937" stroke="#FBBF24" stroke-width="3"/>
  <path d="M39 55 A11 11 0 0 1 61 55 Z" fill="#FBBF24"/>
  <rect x="39" y="52" width="22" height="6" fill="#1F2937"/>
  <circle cx="50" cy="55" r="4.5" fill="#1F2937" stroke="#FBBF24" stroke-width="2.5"/>
  <circle cx="50" cy="55" r="1.8" fill="#FBBF24"/>
</svg>