<svg xmlns="http://www.w3.org/2000/svg" viewBox="0 0 100 100" fill="none">
  <defs>
    <linearGradient id="v2gold" x1="0" y1="0" x2="0" y2="1">
      <stop offset="0%" stop-color="#FCD34D"/><stop offset="100%" stop-color="#D97706"/>
    </linearGradient>
  </defs>
  <!-- Far left -->
  <g transform="rotate(-28 50 65)">
    <rect x="16" y="22" width="34" height="50" rx="5" fill="#0c1628" stroke="#1a2e50" stroke-width="1.2"/>
    <rect x="16" y="22" width="34" height="14" rx="5" fill="#162040"/>
    <rect x="16" y="30" width="34" height="6" fill="#162040"/>
  </g>
  <!-- Left -->
  <g transform="rotate(-14 50 65)">
    <rect x="18" y="18" width="36" height="54" rx="6" fill="#0f1e38" stroke="#243660" stroke-width="1.5"/>
    <rect x="18" y="18" width="36" height="18" rx="6" fill="#1a3060"/>
    <rect x="18" y="28" width="36" height="8" fill="#1a3060"/>
  </g>
  <!-- Centre -->
  <rect x="28" y="10" width="44" height="64" rx="7" fill="#0f172a" stroke="#FBBF24" stroke-width="2.5"/>
  <rect x="28" y="10" width="44" height="26" rx="7" fill="url(#v2gold)"/>
  <rect x="28" y="26" width="44" height="10" fill="url(#v2gold)"/>
  <!-- Pokeball on centre -->
  <circle cx="50" cy="54" r="12" fill="#080e1c" stroke="#FBBF24" stroke-width="2.5"/>
  <path d="M38 54 A12 12 0 0 1 62 54 Z" fill="#FBBF24"/>
  <rect x="38" y="51" width="24" height="6" fill="#080e1c"/>
  <circle cx="50" cy="54" r="4.5" fill="#080e1c" stroke="#FBBF24" stroke-width="2.5"/>
  <circle cx="50" cy="54" r="1.8" fill="#FBBF24"/>
  <!-- Right -->
  <g transform="rotate(14 50 65)">
    <rect x="46" y="18" width="36" height="54" rx="6" fill="#0f1e38" stroke="#243660" stroke-width="1.5"/>
    <rect x="46" y="18" width="36" height="18" rx="6" fill="#1a3060"/>
    <rect x="46" y="28" width="36" height="8" fill="#1a3060"/>
  </g>
  <!-- Far right -->
  <g transform="rotate(28 50 65)">
    <rect x="50" y="22" width="34" height="50" rx="5" fill="#0c1628" stroke="#1a2e50" stroke-width="1.2"/>
    <rect x="50" y="22" width="34" height="14" rx="5" fill="#162040"/>
    <rect x="50" y="30" width="34" height="6" fill="#162040"/>
  </g>
</svg>